<?xml version="1.0" encoding="UTF-8"?><svg id="Layer_1" xmlns="http://www.w3.org/2000/svg" viewBox="0 0 381.98 311.9"><defs><style>.cls-1{fill:#658d3d;}</style></defs><g><g><path class="cls-1" d="M101.67,307.31h1.12c.87,0,.97,.15,.97,.76v2.24c0,.66-.2,.92-.97,.92h-12.34c-.71,0-.92-.2-.92-.92v-2.24c0-.56,.15-.76,.92-.76h1.12c1.63,0,2.19-.46,2.19-2.4v-24.17c0-1.94-.51-2.4-2.14-2.4h-1.17c-.82,0-.97-.15-.97-.82v-2.14c0-.82,.25-.97,.97-.97h12.34c.71,0,.92,.15,.92,.97v2.14c0,.71-.1,.82-.92,.82h-1.22c-1.63,0-2.09,.31-2.09,2.4v24.17c0,2.09,.56,2.4,2.19,2.4Z"/><path class="cls-1" d="M108.25,288.4c-.66,0-.87-.31-.87-.92v-2.09c0-.71,.2-.92,.97-.97l7.14-.41c.92,0,1.12,.41,1.12,1.43v3.47c1.43-3.72,4.95-5.41,9.13-5.41,4.79,0,8.31,2.5,8.31,8.92v12.75c0,1.53,.51,2.24,1.53,2.24s1.22-.2,1.78-.25c.41-.05,.61,0,.61,.51v2.29c0,.46-.15,.87-.71,1.07-.82,.31-1.58,.46-3.57,.46-2.29,0-5.05-.92-5.05-5.2v-13.05c0-3.06-1.33-5.2-4.74-5.2-4.64,0-6.99,4.03-6.99,10.96v6.12c0,1.89,.56,2.19,2.24,2.19h1.22c.82,0,.97,.2,.97,.76v2.24c0,.71-.25,.92-.97,.92h-12.34c-.71,0-.92-.2-.92-.92v-2.24c0-.56,.1-.76,.92-.76h1.22c1.68,0,2.24-.31,2.24-2.19v-15.2c-.1-1.27-.61-1.53-3.26-1.53Z"/><path class="cls-1" d="M158.38,292.98c-1.84,0-3.11-1.17-3.11-3.11,0-.71,.15-1.38,.51-1.94-1.12-.51-2.5-.82-4.18-.82-3.52,0-5,1.48-5,3.52,0,6.43,15.35,2.14,15.35,12.9,0,5.61-3.67,8.36-10.76,8.36-6.22,0-10.66-2.14-10.66-6.58,0-1.94,1.17-3.37,3.16-3.37s3.01,1.27,3.01,3.11c0,.87-.26,1.58-.71,2.14,1.43,.77,3.21,1.07,5.1,1.07,3.57,0,5.76-1.17,5.76-4.08,0-6.63-15.3-2.19-15.3-12.95,0-4.95,3.26-7.75,9.84-7.75s10,2.29,10,6.27c0,1.68-1.17,3.21-3.01,3.21Z"/><path class="cls-1" d="M168.48,284.47l2.19-6.73c.2-.71,.76-.82,1.84-.82,1.33,0,1.38,.1,1.38,.82v6.73h6.12c.87,0,1.12,.1,1.12,.76v2.45c0,.61-.25,.92-1.07,.92h-6.17v13.62c0,4.49,1.38,5.15,3.98,5.15,1.48,0,2.5-.2,3.26-.51,.56-.25,.82-.1,.82,.61v2.24c0,.61-.2,.92-.82,1.17-1.33,.51-3.21,.66-4.64,.66-4.33,0-8.01-1.43-8.01-8.01v-14.94h-2.86c-.92,0-1.17-.1-1.17-1.02v-1.99c0-.82,.2-1.12,.92-1.12h3.11Z"/><path class="cls-1" d="M196.07,307.31h1.22c.82,0,.97,.2,.97,.76v2.24c0,.71-.25,.92-.97,.92h-12.34c-.71,0-.92-.2-.92-.92v-2.24c0-.56,.1-.76,.92-.76h1.22c1.68,0,2.24-.31,2.24-2.19v-14.84c0-1.33-.36-1.79-1.48-1.84l-1.73-.05c-.82-.05-.92-.46-.92-1.07v-1.89c0-.82,.2-.92,.92-.97l7.44-.46c.92,0,1.17,.41,1.17,1.43v19.68c0,1.89,.56,2.19,2.24,2.19Zm-4.95-35.29c1.84,0,3.37,1.48,3.37,3.67,0,2.35-1.79,3.72-3.82,3.72-1.84,0-3.26-1.27-3.26-3.47,0-2.35,1.63-3.93,3.72-3.93Z"/><path class="cls-1" d="M203.61,284.47l2.19-6.73c.2-.71,.76-.82,1.83-.82,1.33,0,1.38,.1,1.38,.82v6.73h6.12c.87,0,1.12,.1,1.12,.76v2.45c0,.61-.25,.92-1.07,.92h-6.17v13.62c0,4.49,1.38,5.15,3.98,5.15,1.48,0,2.5-.2,3.26-.51,.56-.25,.82-.1,.82,.61v2.24c0,.61-.2,.92-.82,1.17-1.33,.51-3.21,.66-4.64,.66-4.33,0-8.01-1.43-8.01-8.01v-14.94h-2.86c-.92,0-1.17-.1-1.17-1.02v-1.99c0-.82,.2-1.12,.92-1.12h3.11Z"/><path class="cls-1" d="M239.72,297.93v-8.01c-.1-1.27-.61-1.53-3.26-1.53-.71,0-.87-.31-.87-.92v-2.09c0-.71,.2-.92,.92-.97l7.39-.41c.97,0,1.22,.41,1.22,1.43v20.09c.05,1.28,.56,1.89,1.53,1.89,.92,0,1.22-.2,1.73-.25,.46-.05,.66,0,.66,.51v2.29c0,.46-.15,.87-.71,1.07-.82,.31-1.63,.46-3.57,.46s-4.13-.61-4.84-3.21c-1.89,2.45-5.1,3.62-9.13,3.62-5.25,0-8.52-2.24-8.52-9.18v-12.49c0-1.53-.41-1.84-3.26-1.84-.66,0-.87-.31-.87-.92v-2.09c0-.71,.25-.92,.97-.97l7.39-.41c.92,0,1.17,.41,1.17,1.43v16.98c0,2.86,1.27,5,4.84,5,4.74,0,7.19-3.52,7.19-9.48Z"/><path class="cls-1" d="M253.34,284.47l2.19-6.73c.2-.71,.77-.82,1.84-.82,1.33,0,1.38,.1,1.38,.82v6.73h6.12c.87,0,1.12,.1,1.12,.76v2.45c0,.61-.25,.92-1.07,.92h-6.17v13.62c0,4.49,1.38,5.15,3.98,5.15,1.48,0,2.5-.2,3.26-.51,.56-.25,.82-.1,.82,.61v2.24c0,.61-.2,.92-.82,1.17-1.33,.51-3.21,.66-4.64,.66-4.33,0-8.01-1.43-8.01-8.01v-14.94h-2.86c-.92,0-1.17-.1-1.17-1.02v-1.99c0-.82,.2-1.12,.92-1.12h3.11Z"/><path class="cls-1" d="M292.45,292.32c0,5.15-3.26,8.62-10.76,8.62-2.29,0-4.64-.31-6.73-.92,.51,5.3,2.96,7.45,8.11,7.45,2.96,0,5.56-.71,6.83-1.22,1.12-.41,1.73-.76,2.14-.76,.36,0,.46,.2,.46,.61v2.4c0,.61-.15,.92-1.02,1.38-1.68,.87-5.25,1.73-8.87,1.73-9.43,0-13.36-5.56-13.36-13.77s4.18-14.33,12.39-14.33c6.99,0,10.81,3.21,10.81,8.82Zm-17.54,3.93c2.14,.61,4.49,.92,6.37,.92,4.03,0,6.17-1.63,6.17-5s-2.04-4.79-5.81-4.79c-4.23,0-6.37,3.21-6.73,8.87Z"/></g><g><path class="cls-1" d="M24.38,254.59H10.91l-1.94,5.76c-.56,1.73,0,2.14,1.58,2.24h.71c.92,.1,1.07,.36,1.07,1.02v1.94c0,.76-.25,.92-1.07,.92H.92c-.66,0-.92-.15-.92-.92v-1.99c0-.66,.15-.97,.92-1.02l1.53-.05c.87-.05,1.27-.25,2.04-2.45l10.15-29.68c.25-.66,.36-.82,1.33-.82h4.59c.66,0,.92,.15,1.17,.76l10.3,29.47c.87,2.45,1.12,2.65,2.8,2.7l.92,.05c.92,0,1.12,.25,1.12,.92v2.09c0,.76-.15,.92-1.07,.92h-11.68c-.87,0-1.07-.15-1.07-.92v-1.94c0-.66,.15-.87,1.07-.97h.66c1.27-.15,1.84-.31,1.84-1.07,0-.36-.15-.87-.41-1.58l-1.84-5.41Zm-12.19-3.88h10.86l-5.46-16.06-5.41,16.06Z"/><path class="cls-1" d="M40.29,243.63c-.66,0-.87-.31-.87-.92v-2.09c0-.71,.2-.92,.97-.97l7.14-.41c.92,0,1.12,.41,1.12,1.43v3.47c1.43-3.72,4.95-5.41,9.13-5.41,4.79,0,8.31,2.5,8.31,8.92v12.75c0,1.53,.51,2.24,1.53,2.24s1.22-.2,1.78-.26c.41-.05,.61,0,.61,.51v2.29c0,.46-.15,.87-.71,1.07-.82,.31-1.58,.46-3.57,.46-2.29,0-5.05-.92-5.05-5.2v-13.05c0-3.06-1.33-5.2-4.74-5.2-4.64,0-6.99,4.03-6.99,10.96v6.12c0,1.89,.56,2.19,2.24,2.19h1.22c.82,0,.97,.2,.97,.76v2.24c0,.71-.25,.92-.97,.92h-12.34c-.71,0-.92-.2-.92-.92v-2.24c0-.56,.1-.76,.92-.76h1.22c1.68,0,2.24-.31,2.24-2.19v-15.2c-.1-1.28-.61-1.53-3.26-1.53Z"/><path class="cls-1" d="M84.66,262.55h1.22c.82,0,.97,.2,.97,.76v2.24c0,.71-.25,.92-.97,.92h-12.34c-.71,0-.92-.2-.92-.92v-2.24c0-.56,.1-.76,.92-.76h1.22c1.68,0,2.24-.31,2.24-2.19v-14.84c0-1.33-.36-1.79-1.48-1.84l-1.73-.05c-.82-.05-.92-.46-.92-1.07v-1.89c0-.82,.2-.92,.92-.97l7.45-.46c.92,0,1.17,.41,1.17,1.43v19.68c0,1.89,.56,2.19,2.24,2.19Zm-4.95-35.29c1.84,0,3.37,1.48,3.37,3.67,0,2.35-1.78,3.72-3.82,3.72-1.84,0-3.26-1.28-3.26-3.47,0-2.35,1.63-3.93,3.72-3.93Z"/><path class="cls-1" d="M98.63,253.32v7.04c0,1.89,.41,2.19,1.58,2.19h1.07c.76,0,.92,.15,.92,.76v2.24c0,.71-.2,.92-.92,.92h-11.27c-.71,0-.97-.2-.97-.92v-2.24c0-.61,.15-.76,.97-.76h1.02c1.58,0,2.19-.41,2.19-2.19v-14.89c0-1.53-.41-1.84-3.31-1.84-.66,0-.82-.31-.82-.92v-2.09c0-.71,.2-.92,.92-.97l7.39-.41c.97,0,1.22,.41,1.22,1.43v2.35c1.53-3.01,4.59-4.28,8.31-4.28,3.47,0,6.27,1.48,7.39,5,1.48-3.52,4.79-5,8.87-5,4.59,0,7.96,2.5,7.96,8.92v12.75c0,1.53,.56,2.24,1.58,2.24,.92,0,1.17-.2,1.73-.26,.41-.05,.61,0,.61,.51v2.29c0,.46-.15,.87-.71,1.07-.82,.31-1.63,.46-3.57,.46-2.35,0-5.05-.92-5.05-5.2v-13.05c0-3.06-1.22-5.15-4.33-5.15-4.39,0-6.53,3.62-6.53,10v7.04c0,1.89,.56,2.19,2.14,2.19h1.12c.77,0,.92,.15,.92,.76v2.24c0,.71-.2,.92-.92,.92h-11.32c-.76,0-.92-.2-.92-.92v-2.24c0-.61,.1-.76,.92-.76h1.02c1.22,0,1.63-.41,1.63-2.19v-12.34c-.15-2.8-1.38-4.69-4.33-4.69-4.44,0-6.53,3.62-6.53,10Z"/><path class="cls-1" d="M149.12,238.73c7.04,0,10.86,2.09,10.86,10.2v11.47c0,1.53,.51,2.24,1.53,2.24,.92,0,1.17-.2,1.73-.26,.46-.05,.66,0,.66,.51v2.29c0,.46-.15,.87-.71,1.07-.82,.31-1.58,.46-3.57,.46s-4.23-.66-4.9-3.42c-1.73,2.04-4.69,3.47-8.87,3.47-5.61,0-8.41-2.45-8.41-7.34,0-7.04,5.81-8.98,14.94-8.98h2.19v-1.63c0-4.49-1.53-5.97-5.51-5.97-1.58,0-3.16,.25-4.44,.82,.31,.46,.51,1.07,.51,1.79,0,2.04-1.58,3.42-3.37,3.42-1.68,0-3.01-1.22-3.01-3.16,0-5.1,3.72-6.99,10.35-6.99Zm-2.04,24.12c4.33,0,7.5-2.75,7.5-7.55v-1.17h-2.19c-6.12,0-9.59,1.28-9.59,5.15,0,2.19,1.12,3.57,4.28,3.57Z"/><path class="cls-1" d="M169.42,231.95h-1.73c-.77-.05-.87-.46-.87-1.07v-1.89c0-.87,.15-.97,.87-1.02l7.44-.41c.97,0,1.22,.41,1.22,1.43v31.36c0,1.89,.56,2.19,2.24,2.19h1.22c.76,0,.92,.2,.92,.76v2.24c0,.71-.2,.92-.92,.92h-12.34c-.77,0-.97-.2-.97-.92v-2.24c0-.56,.15-.76,.97-.76h1.22c1.63,0,2.24-.31,2.24-2.19v-26.88c-.1-1.07-.51-1.48-1.53-1.53Z"/><path class="cls-1" d="M208.13,261.07l6.88-30.19c.2-1.07,.31-1.22,1.02-1.22h4.33c.76,0,.76,.25,1.07,1.28l7.45,28.4,5.76-23.3c.15-.61,.25-1.07,.25-1.43,0-.92-.66-1.02-2.75-1.02-.66,0-.92-.31-.92-.92v-2.14c0-.77,.05-.87,1.12-.87h10.15c.66,0,.82,.15,.82,.92v2.04c0,.51-.05,.97-.82,.97-2.6,0-2.86,.1-3.52,2.8l-7.7,29.22c-.31,1.12-.46,1.28-1.48,1.28h-3.88c-.92,0-1.07-.51-1.27-1.28l-7.09-27.54-6.22,27.54c-.25,1.12-.51,1.28-1.27,1.28h-5.15c-.66,0-1.02-.2-1.28-1.22l-8.06-29.32c-.71-2.6-1.02-2.75-3.16-2.75-1.17,0-1.33-.25-1.33-1.28v-1.78c0-.71,.15-.87,.87-.87h12.24c.71,0,.87,.2,.87,.87v2.19c0,.56-.15,.87-.77,.87-2.19,0-2.91,.05-2.91,.97,0,.36,.1,.87,.31,1.58l6.43,24.94Z"/><path class="cls-1" d="M264.58,247.56c0,5.15-3.26,8.62-10.76,8.62-2.29,0-4.64-.31-6.73-.92,.51,5.3,2.96,7.45,8.11,7.45,2.96,0,5.56-.71,6.83-1.22,1.12-.41,1.73-.77,2.14-.77,.36,0,.46,.2,.46,.61v2.4c0,.61-.15,.92-1.02,1.38-1.68,.87-5.25,1.73-8.87,1.73-9.43,0-13.36-5.56-13.36-13.77s4.18-14.33,12.39-14.33c6.99,0,10.81,3.21,10.81,8.82Zm-17.54,3.93c2.14,.61,4.49,.92,6.37,.92,4.03,0,6.17-1.63,6.17-5s-2.04-4.79-5.81-4.79c-4.23,0-6.38,3.21-6.73,8.87Z"/><path class="cls-1" d="M270.7,231.95h-1.73c-.77-.05-.87-.46-.87-1.07v-1.89c0-.87,.15-.97,.87-1.02l7.44-.41c.97,0,1.22,.41,1.22,1.43v31.36c0,1.89,.56,2.19,2.24,2.19h1.22c.76,0,.92,.2,.92,.76v2.24c0,.71-.2,.92-.92,.92h-12.34c-.77,0-.97-.2-.97-.92v-2.24c0-.56,.15-.76,.97-.76h1.22c1.63,0,2.24-.31,2.24-2.19v-26.88c-.1-1.07-.51-1.48-1.53-1.53Z"/><path class="cls-1" d="M288.66,239.75v-2.8c0-6.83,2.86-10.4,9.38-10.4,4.59,0,7.39,2.24,7.6,6.12,0,.05,.05,.1,.05,.15v.2c0,2.04-1.58,3.37-3.37,3.37-1.68,0-3.01-1.22-3.01-3.16,0-1.12,.46-2.04,1.12-2.65-.46-.15-1.07-.25-1.78-.25-3.01,0-4.59,1.79-4.59,6.27v3.16h5.92c.87,0,1.12,.1,1.12,.82v2.14c0,.61-.31,.92-1.07,.92h-5.97v16.73c0,1.89,.61,2.19,2.24,2.19h1.22c.82,0,.97,.2,.97,.76v2.24c0,.71-.2,.92-.97,.92h-12.34c-.71,0-.92-.2-.92-.92v-2.24c0-.56,.1-.76,.92-.76h1.22c1.68,0,2.24-.31,2.24-2.19v-16.73h-3.31c-.92,0-1.17-.1-1.17-.97v-1.73c0-.82,.2-1.17,.92-1.17h3.57Z"/><path class="cls-1" d="M315.23,238.73c7.04,0,10.86,2.09,10.86,10.2v11.47c0,1.53,.51,2.24,1.53,2.24,.92,0,1.17-.2,1.73-.26,.46-.05,.66,0,.66,.51v2.29c0,.46-.15,.87-.71,1.07-.82,.31-1.58,.46-3.57,.46s-4.23-.66-4.9-3.42c-1.73,2.04-4.69,3.47-8.87,3.47-5.61,0-8.41-2.45-8.41-7.34,0-7.04,5.81-8.98,14.94-8.98h2.19v-1.63c0-4.49-1.53-5.97-5.51-5.97-1.58,0-3.16,.25-4.44,.82,.31,.46,.51,1.07,.51,1.79,0,2.04-1.58,3.42-3.37,3.42-1.68,0-3.01-1.22-3.01-3.16,0-5.1,3.72-6.99,10.35-6.99Zm-2.04,24.12c4.33,0,7.5-2.75,7.5-7.55v-1.17h-2.19c-6.12,0-9.59,1.28-9.59,5.15,0,2.19,1.12,3.57,4.28,3.57Z"/><path class="cls-1" d="M334.35,243.63c-.66,0-.87-.31-.87-.92v-2.09c0-.71,.2-.92,.97-.97l7.39-.41c.92,0,1.17,.41,1.17,1.43v5.35c.71-2.5,3.01-7.29,8.57-7.29,3.72,0,5.25,2.04,5.25,4.95,0,2.04-1.58,3.37-3.31,3.37s-3.06-1.22-3.06-3.16c0-.41,.05-.82,.2-1.17-4.9,.15-7.65,7.34-7.65,12.75v4.9c0,1.89,.56,2.19,2.24,2.19h2.24c.82,0,.97,.2,.97,.76v2.29c0,.66-.2,.87-.97,.87h-13.36c-.71,0-.92-.2-.92-.92v-2.24c0-.61,.15-.76,.92-.76h1.17c1.68,0,2.29-.41,2.29-2.19v-14.89c0-1.53-.41-1.84-3.26-1.84Z"/><path class="cls-1" d="M381.93,247.56c0,5.15-3.26,8.62-10.76,8.62-2.29,0-4.64-.31-6.73-.92,.51,5.3,2.96,7.45,8.11,7.45,2.96,0,5.56-.71,6.83-1.22,1.12-.41,1.73-.77,2.14-.77,.36,0,.46,.2,.46,.61v2.4c0,.61-.15,.92-1.02,1.38-1.68,.87-5.25,1.73-8.87,1.73-9.43,0-13.36-5.56-13.36-13.77s4.18-14.33,12.39-14.33c6.99,0,10.81,3.21,10.81,8.82Zm-17.54,3.93c2.14,.61,4.49,.92,6.37,.92,4.03,0,6.17-1.63,6.17-5s-2.04-4.79-5.81-4.79c-4.23,0-6.38,3.21-6.73,8.87Z"/></g></g><g><path class="cls-1" d="M230.07,151.29c3.22,7.87,15.65,3.32,10.84-9.53-4.32-11.52,.17-11.07-.88-18.89-.79-5.85-6.87-7.52-10.06-1.23-3.24,6.39-4.2,8.75-3.15,16.88,0,0,.77,6.79,3.24,12.77Zm33.92-17.49c-1.03-7.04-2.4-9.27-6.87-13.99-4.85-5.14-14.43-3.44-9.22,5.24,4.21,6.98,2.82,11.19,1.76,17.58-1.87,11.45,10.67,12.01,13.04,4.81,2.61-8.05,1.3-13.64,1.3-13.64Zm-52.63,17.31c0,3.1,.16,9.71,5.16,15.65,4.69,5.6,12.59,1.06,11.37-4.72-.69-3.24-2.34-8.3-7.79-13.81-6.91-7-8.74-.61-8.74,2.88Zm59.19-5.25c-2.29,2.07-6.12,6.76-6.32,14.51-.15,6.38,7.2,10.32,10.33,4.9,1.68-2.87,3.66-5.2,4.12-12.95,.35-5.94-4.64-9.61-8.14-6.47Zm-43.81,28.85c-11.79,2.06-6.19,16.97,7.35,17.48,10.09,.4,10.14-2.96,15.12-3.23,4.98-.26,6.31,2.46,11.64,1.84,2.98-.34,11.42-.62,13.1-9.1,1.85-9.19-3.49-9.27-5.84-8.91-2.37,.36-5.07-.18-5.07-.18,0,0-1.84,.18-9.27-7.26-7.01-6.99-13.99-6.03-18.03,1.23-3.81,6.89-2,6.91-9.01,8.12Zm70.8,11.63l-50.06,28.9c-.67,.39-1.49,.39-2.16,0l-50.06-28.9c-.67-.39-1.08-1.1-1.08-1.87v-57.8c0-.77,.41-1.48,1.08-1.87l50.06-28.9c.67-.39,1.49-.39,2.16,0l50.06,28.9c.67,.39,1.08,1.1,1.08,1.87v57.8c0,.77-.41,1.48-1.08,1.87Z"/><path class="cls-1" d="M189.91,119.64c.67,.39,1.49,.39,2.16,0l50.06-28.9c.67-.39,1.08-1.1,1.08-1.87V31.06c0-.77-.41-1.48-1.08-1.87L192.07,.29c-.67-.39-1.49-.39-2.16,0l-50.06,28.9c-.67,.39-1.08,1.1-1.08,1.87v57.8c0,.77,.41,1.48,1.08,1.87l1.32,.76,.02-.04s9.5-21.07,39.94-35.88c0,0-2.37-12.33,8.12-21.51,0,0-3.28-2.1-6.04-3.94,0,0,28.47-11.67,39.75,20.06,0,0,4.07,1.19,5.38,6.16,0,0-5.17-.85-8.15-.52-2.35,.26-5.46,1.74-2.48,5.78,2.63,3.54,14.03,36.27-31.76,55.75l3.96,2.28Z"/><path class="cls-1" d="M186.72,124.8l-50.06-28.9c-.67-.39-1.49-.39-2.16,0l-50.06,28.9c-.67,.39-1.08,1.1-1.08,1.87v57.8c0,.77,.41,1.48,1.08,1.87l50.06,28.9c.67,.39,1.49,.39,2.16,0l13.98-8.07s.01-.03,.02-.05l-.04-.13c-4.85-14.49-10.42-21.7-15.27-30.1-2.89-4.99-4.99-14.96-17.32-17.05-13.46-2.3-21.27-6.63-25.96-15.35-5.38-9.97-.27-14.95,2.88-8.66,2.41,4.83,4.59,7.48,12.85,4.46,8.26-3.01,14.98-4.56,18.88-3.41,5.38,1.58,6.96,3.28,9.58-3.27,2.34-5.85,6.28-4.84,11.54-6.69,6.69-2.36,5.65-7.73,5.65-10.36s4.19-6.98,5.9,2.75c2.74,15.74-4.43,21.86-12.46,32.52-8,10.63-.27,25.84,7.21,28.72,10.29,3.97,20.67,8.41,24.36,10.55l8.25-4.77c.67-.39,1.08-1.1,1.08-1.87v-57.8c0-.77-.41-1.48-1.08-1.87Z"/></g></svg>